<svg xmlns="http://www.w3.org/2000/svg" viewBox="0 0 1920 1080">
  <defs>
    <linearGradient id="sky" x1="0%" y1="0%" x2="0%" y2="100%">
      <stop offset="0%" style="stop-color:#1a2e20"/>
      <stop offset="40%" style="stop-color:#0f1a14"/>
      <stop offset="100%" style="stop-color:#162118"/>
    </linearGradient>
    <linearGradient id="mountain" x1="0%" y1="0%" x2="0%" y2="100%">
      <stop offset="0%" style="stop-color:#2d4a38"/>
      <stop offset="100%" style="stop-color:#1a2e20"/>
    </linearGradient>
  </defs>
  <rect width="1920" height="1080" fill="url(#sky)"/>
  <path d="M0 600 L200 400 L400 550 L600 350 L800 500 L1000 300 L1200 450 L1400 320 L1600 480 L1800 380 L1920 450 L1920 1080 L0 1080 Z" fill="url(#mountain)" opacity="0.6"/>
  <path d="M0 700 L150 550 L300 650 L500 480 L700 600 L900 450 L1100 580 L1300 420 L1500 550 L1700 470 L1920 580 L1920 1080 L0 1080 Z" fill="#1a2e20" opacity="0.8"/>
  <path d="M0 800 L100 700 L200 750 L350 650 L500 720 L650 600 L800 700 L950 620 L1100 700 L1250 650 L1400 720 L1550 680 L1700 740 L1850 700 L1920 730 L1920 1080 L0 1080 Z" fill="#0f1a14"/>
</svg>